<?xml version="1.0" encoding="utf-8"?>
<svg version="1.1" xmlns:xlink="http://www.w3.org/1999/xlink" width="22px" height="22px" viewBox="646 555  22 22" xmlns="http://www.w3.org/2000/svg">
  <path d="M 646.5 560  A 4.5 4.5 0 0 1 651 555.5 L 663 555.5  A 4.5 4.5 0 0 1 667.5 560 L 667.5 572  A 4.5 4.5 0 0 1 663 576.5 L 651 576.5  A 4.5 4.5 0 0 1 646.5 572 L 646.5 560  Z " fill-rule="nonzero" fill="#ffffff" stroke="none" />
  <path d="M 646.5 560  A 4.5 4.5 0 0 1 651 555.5 L 663 555.5  A 4.5 4.5 0 0 1 667.5 560 L 667.5 572  A 4.5 4.5 0 0 1 663 576.5 L 651 576.5  A 4.5 4.5 0 0 1 646.5 572 L 646.5 560  Z " stroke-width="1" stroke="#797979" fill="none" />
  <path d="M 650.714285714286 566  L 655.428571428571 570.714285714286  " stroke-width="4.71428571428571" stroke="#797979" fill="none" />
  <path d="M 655.428571428571 570.714285714286  L 663.285714285714 559.714285714286  " stroke-width="4.71428571428571" stroke="#797979" fill="none" />
</svg>