<?xml version="1.0" encoding="utf-8"?>
<svg version="1.1" xmlns:xlink="http://www.w3.org/1999/xlink" width="35px" height="36px" xmlns="http://www.w3.org/2000/svg">
  <defs>
    <mask fill="white" id="clip29">
      <path d="M 28.7337239583333 20.5546875  C 29.0223524305556 20.2578125  29.1666666666667 19.90625  29.1666666666667 19.5  L 29.1666666666667 16.5  C 29.1666666666667 16.09375  29.0223524305556 15.7421875  28.7337239583333 15.4453125  C 28.4450954861111 15.1484375  28.1032986111111 15  27.7083333333333 15  L 20.4166666666667 15  L 20.4166666666667 7.5  C 20.4166666666667 7.09375  20.2723524305556 6.7421875  19.9837239583333 6.4453125  C 19.6950954861111 6.1484375  19.3532986111111 6  18.9583333333333 6  L 16.0416666666667 6  C 15.6467013888889 6  15.3049045138889 6.1484375  15.0162760416667 6.4453125  C 14.7276475694444 6.7421875  14.5833333333333 7.09375  14.5833333333333 7.5  L 14.5833333333333 15  L 7.29166666666667 15  C 6.89670138888889 15  6.55490451388889 15.1484375  6.26627604166667 15.4453125  C 5.97764756944445 15.7421875  5.83333333333333 16.09375  5.83333333333333 16.5  L 5.83333333333333 19.5  C 5.83333333333333 19.90625  5.97764756944445 20.2578125  6.26627604166667 20.5546875  C 6.55490451388889 20.8515625  6.89670138888889 21  7.29166666666667 21  L 14.5833333333333 21  L 14.5833333333333 28.5  C 14.5833333333333 28.90625  14.7276475694444 29.2578125  15.0162760416667 29.5546875  C 15.3049045138889 29.8515625  15.6467013888889 30  16.0416666666667 30  L 18.9583333333333 30  C 19.3532986111111 30  19.6950954861111 29.8515625  19.9837239583333 29.5546875  C 20.2723524305556 29.2578125  20.4166666666667 28.90625  20.4166666666667 28.5  L 20.4166666666667 21  L 27.7083333333333 21  C 28.1032986111111 21  28.4450954861111 20.8515625  28.7337239583333 20.5546875  Z M 33.0745442708333 1.98046875  C 34.3581814236111 3.30078125  35 4.89062499999999  35 6.75  L 35 29.25  C 35 31.109375  34.3581814236111 32.69921875  33.0745442708333 34.01953125  C 31.7909071180556 35.33984375  30.2452256944444 36  28.4375 36  L 6.5625 36  C 4.75477430555556 36  3.20909288194444 35.33984375  1.92545572916667 34.01953125  C 0.641818576388889 32.69921875  0 31.109375  0 29.25  L 0 6.75  C 0 4.89062499999999  0.641818576388889 3.30078125  1.92545572916667 1.98046875  C 3.20909288194444 0.660156249999998  4.75477430555556 0  6.5625 0  L 28.4375 0  C 30.2452256944444 0  31.7909071180556 0.660156249999998  33.0745442708333 1.98046875  Z " fill-rule="evenodd" />
    </mask>
  </defs>
  <g transform="matrix(1 0 0 1 -1229 -152 )">
    <path d="M 28.7337239583333 20.5546875  C 29.0223524305556 20.2578125  29.1666666666667 19.90625  29.1666666666667 19.5  L 29.1666666666667 16.5  C 29.1666666666667 16.09375  29.0223524305556 15.7421875  28.7337239583333 15.4453125  C 28.4450954861111 15.1484375  28.1032986111111 15  27.7083333333333 15  L 20.4166666666667 15  L 20.4166666666667 7.5  C 20.4166666666667 7.09375  20.2723524305556 6.7421875  19.9837239583333 6.4453125  C 19.6950954861111 6.1484375  19.3532986111111 6  18.9583333333333 6  L 16.0416666666667 6  C 15.6467013888889 6  15.3049045138889 6.1484375  15.0162760416667 6.4453125  C 14.7276475694444 6.7421875  14.5833333333333 7.09375  14.5833333333333 7.5  L 14.5833333333333 15  L 7.29166666666667 15  C 6.89670138888889 15  6.55490451388889 15.1484375  6.26627604166667 15.4453125  C 5.97764756944445 15.7421875  5.83333333333333 16.09375  5.83333333333333 16.5  L 5.83333333333333 19.5  C 5.83333333333333 19.90625  5.97764756944445 20.2578125  6.26627604166667 20.5546875  C 6.55490451388889 20.8515625  6.89670138888889 21  7.29166666666667 21  L 14.5833333333333 21  L 14.5833333333333 28.5  C 14.5833333333333 28.90625  14.7276475694444 29.2578125  15.0162760416667 29.5546875  C 15.3049045138889 29.8515625  15.6467013888889 30  16.0416666666667 30  L 18.9583333333333 30  C 19.3532986111111 30  19.6950954861111 29.8515625  19.9837239583333 29.5546875  C 20.2723524305556 29.2578125  20.4166666666667 28.90625  20.4166666666667 28.5  L 20.4166666666667 21  L 27.7083333333333 21  C 28.1032986111111 21  28.4450954861111 20.8515625  28.7337239583333 20.5546875  Z M 33.0745442708333 1.98046875  C 34.3581814236111 3.30078125  35 4.89062499999999  35 6.75  L 35 29.25  C 35 31.109375  34.3581814236111 32.69921875  33.0745442708333 34.01953125  C 31.7909071180556 35.33984375  30.2452256944444 36  28.4375 36  L 6.5625 36  C 4.75477430555556 36  3.20909288194444 35.33984375  1.92545572916667 34.01953125  C 0.641818576388889 32.69921875  0 31.109375  0 29.25  L 0 6.75  C 0 4.89062499999999  0.641818576388889 3.30078125  1.92545572916667 1.98046875  C 3.20909288194444 0.660156249999998  4.75477430555556 0  6.5625 0  L 28.4375 0  C 30.2452256944444 0  31.7909071180556 0.660156249999998  33.0745442708333 1.98046875  Z " fill-rule="nonzero" fill="#000000" stroke="none" transform="matrix(1 0 0 1 1229 152 )" />
    <path d="M 28.7337239583333 20.5546875  C 29.0223524305556 20.2578125  29.1666666666667 19.90625  29.1666666666667 19.5  L 29.1666666666667 16.5  C 29.1666666666667 16.09375  29.0223524305556 15.7421875  28.7337239583333 15.4453125  C 28.4450954861111 15.1484375  28.1032986111111 15  27.7083333333333 15  L 20.4166666666667 15  L 20.4166666666667 7.5  C 20.4166666666667 7.09375  20.2723524305556 6.7421875  19.9837239583333 6.4453125  C 19.6950954861111 6.1484375  19.3532986111111 6  18.9583333333333 6  L 16.0416666666667 6  C 15.6467013888889 6  15.3049045138889 6.1484375  15.0162760416667 6.4453125  C 14.7276475694444 6.7421875  14.5833333333333 7.09375  14.5833333333333 7.5  L 14.5833333333333 15  L 7.29166666666667 15  C 6.89670138888889 15  6.55490451388889 15.1484375  6.26627604166667 15.4453125  C 5.97764756944445 15.7421875  5.83333333333333 16.09375  5.83333333333333 16.5  L 5.83333333333333 19.5  C 5.83333333333333 19.90625  5.97764756944445 20.2578125  6.26627604166667 20.5546875  C 6.55490451388889 20.8515625  6.89670138888889 21  7.29166666666667 21  L 14.5833333333333 21  L 14.5833333333333 28.5  C 14.5833333333333 28.90625  14.7276475694444 29.2578125  15.0162760416667 29.5546875  C 15.3049045138889 29.8515625  15.6467013888889 30  16.0416666666667 30  L 18.9583333333333 30  C 19.3532986111111 30  19.6950954861111 29.8515625  19.9837239583333 29.5546875  C 20.2723524305556 29.2578125  20.4166666666667 28.90625  20.4166666666667 28.5  L 20.4166666666667 21  L 27.7083333333333 21  C 28.1032986111111 21  28.4450954861111 20.8515625  28.7337239583333 20.5546875  Z " stroke-width="2" stroke="#000000" fill="none" transform="matrix(1 0 0 1 1229 152 )" mask="url(#clip29)" />
    <path d="M 33.0745442708333 1.98046875  C 34.3581814236111 3.30078125  35 4.89062499999999  35 6.75  L 35 29.25  C 35 31.109375  34.3581814236111 32.69921875  33.0745442708333 34.01953125  C 31.7909071180556 35.33984375  30.2452256944444 36  28.4375 36  L 6.5625 36  C 4.75477430555556 36  3.20909288194444 35.33984375  1.92545572916667 34.01953125  C 0.641818576388889 32.69921875  0 31.109375  0 29.25  L 0 6.75  C 0 4.89062499999999  0.641818576388889 3.30078125  1.92545572916667 1.98046875  C 3.20909288194444 0.660156249999998  4.75477430555556 0  6.5625 0  L 28.4375 0  C 30.2452256944444 0  31.7909071180556 0.660156249999998  33.0745442708333 1.98046875  Z " stroke-width="2" stroke="#000000" fill="none" transform="matrix(1 0 0 1 1229 152 )" mask="url(#clip29)" />
  </g>
</svg>