<?xml version="1.0" encoding="utf-8"?>
<svg version="1.1" xmlns:xlink="http://www.w3.org/1999/xlink" width="12px" height="27px" xmlns="http://www.w3.org/2000/svg">
  <g transform="matrix(1 0 0 1 -130 -19 )">
    <path d="M 3.57446725027902 27  L 7.78724016462053 27  L 7.78724016462053 14.6999995304287  L 11.3617074148996 14.6999995304287  L 11.8723624093192 9.90000044822717  L 7.78724016462053 9.90000044822717  C 7.78724016462053 9.90000044822717  7.78724016462053 6.90000018142528  7.78724016462053 6.90000018142528  C 7.78724016462053 5.55000046957132  8.17023141043527 4.50000064032452  9.82979474748884 4.50000064032452  C 9.82979474748884 4.50000064032452  12 4.50000064032452  12 4.50000064032452  C 12 4.50000064032452  12 0.150000001334009  12 0.150000001334009  C 11.4893580845424 0.150000001334009  10.2127729143415 0  8.80851091657366 0  C 5.74467250279018 0  3.57446725027902 2.24999983991887  3.57446725027902 6.29999945572416  C 3.57446725027902 6.29999945572416  3.57446725027902 9.89999948774038  3.57446725027902 9.89999948774038  L 0 9.89999948774038  L 0 14.6999995304287  L 3.57446725027902 14.6999995304287  L 3.57446725027902 27  Z " fill-rule="nonzero" fill="#ffffff" stroke="none" transform="matrix(1 0 0 1 130 19 )" />
  </g>
</svg>