<?xml version="1.0" encoding="utf-8"?>
<svg version="1.1" xmlns:xlink="http://www.w3.org/1999/xlink" width="23px" height="24px" xmlns="http://www.w3.org/2000/svg">
  <g transform="matrix(1 0 0 1 -240 -24 )">
    <path d="M 6.96667354371593 23  C 15.2777775835108 23  19.7999993006391 14.1780829481077  19.7999993006391 6.45890510516219  C 19.7999993006391 6.14383748410271  19.7999993006391 5.98630170172073  19.7999993006391 5.67123351727489  C 20.6555555167022 4.88356249277396  21.388891414359 3.78082215705448  22 2.67808351149406  C 21.1444367903275 3.15068635154917  20.2888805742643 3.46575340922229  19.4333313518107 3.62328806483156  C 20.4111148798895 2.83561704033062  21.02223045914 1.73287698630432  21.388891414359 0.472603403441458  C 20.5333282046864 1.10273977233312  19.5555586638264 1.57534204900188  18.5777751357476 1.89041136022042  C 17.722211926075 0.63013693227802  16.5000017484024 0  15.2777775835108 0  C 12.8333362473373 0  10.7555628599921 2.678081821335  10.7555628599921 5.82876760949781  C 10.7555628599921 6.30137044955292  10.7555628599921 6.77397272622167  10.8777726879842 7.08904203744021  C 7.08889386212226 6.77397385299437  3.78889630988557 4.56849430832812  1.58889561052462 0.945205680110208  C 1.22222766169622 1.73287698630432  0.977776534469435 2.83561704033062  0.977776534469435 3.93835512250469  C 0.977776534469435 5.98630170172073  1.83333974414198 7.71917953310458  2.93333659701773 8.82191705189229  C 2.20001118977509 8.82191705189229  1.46667529211829 8.50684886744646  0.855556216063113 8.03424771755042  C 0.855556216063113 10.869864757881  2.44445182658773 13.2328761412248  4.52223570434706 13.7054784178935  C 4.15556076190924 13.8630147636619  3.78889630988557 13.8630147636619  3.30000104904141 13.8630147636619  C 3.05555691542406 13.8630147636619  2.68888197298623 13.8630147636619  2.44445182658773 13.7054784178935  C 3.05555691542406 16.0684931815554  4.64444553233924 17.6438341037846  6.72221891968444 17.8013681960075  C 5.13333030276925 19.3767113717821  3.1777842274398 20.321918178665  1.1000073432899 20.321918178665  C 0.73334638807093 20.321918178665  0.366678439242541 20.321918178665  0 20.1643818328967  C 1.9555600625483 22.0547954466625  4.40000839233132 23  6.96667354371593 23  Z " fill-rule="nonzero" fill="#ffffff" stroke="none" transform="matrix(1 0 0 1 240 24 )" />
  </g>
</svg>