<?xml version="1.0" encoding="utf-8"?>
<svg version="1.1" xmlns:xlink="http://www.w3.org/1999/xlink" width="20px" height="24px" xmlns="http://www.w3.org/2000/svg">
  <g transform="matrix(1 0 0 1 -335 -23 )">
    <path d="M 9.5 2.04444463224689  C 12.0333339538979 2.04444463224689  12.3500003102823 2.04444463224689  13.3000024822584 2.17222259782711  C 14.25 2.17222259782711  14.7777777777778 2.42777805948144  15.0944456855736 2.55555555555556  C 15.516666976949 2.811111486716  15.8333317819218 3.06666671361728  16.1499981383062 3.44999967134572  C 16.4666675975136 3.83333309858028  16.6777774674955 4.21666676056789  16.8888888888889 4.72777815338266  C 16.9944438238799 5.11111111111111  17.2055552452733 5.75  17.2055552452733 6.89999934269145  C 17.2055552452733 8.05000150241955  17.3111117316757 8.43333352113578  17.3111117316757 11.5  C 17.3111117316757 14.5666674178764  17.3111117316757 14.9500003756049  17.2055552452733 16.1000030048391  C 17.2055552452733 17.25  16.9944422724684 17.8888888888889  16.8888873374774 18.2722237246418  C 16.6777774674955 18.7833337089382  16.4666644946906 19.1666647886422  16.1499981383062 19.5499977463707  C 15.8333317819218 19.933334460148  15.5166654255375 20.188888513284  15.0944425827507 20.4444444444444  C 14.7777762263663 20.5722214710125  14.2499984485885 20.8277774021729  13.3000009308469 20.8277774021729  C 12.3500003102823 20.8277774021729  12.0333339538979 20.9555563067653  9.5 20.9555563067653  C 6.96666604610207 20.9555563067653  6.65000124112919 20.9555563067653  5.69999945700598 20.8277774021729  C 4.75 20.8277774021729  4.22222222222222 20.572219592988  3.90555586583785 20.44444256642  C 3.48333302305104 20.188888513284  3.16666647274023 19.9333307040991  2.84999972850299 19.5499977463707  C 2.53333337211862 19.1666647886422  2.32222253250452 18.7833318309138  2.11111111111111 18.2722199685929  C 2.00555559434084 17.8888870108645  1.79444475472674 17.2499981219756  1.79444475472674 16.1000011268147  C 1.79444475472674 14.9500003756049  1.68888904403004 14.5666674178764  1.68888904403004 11.5  C 1.68888904403004 8.43333258212356  1.68888904403004 8.05000150241955  1.79444475472674 6.89999934269145  C 1.79444475472674 5.75  2.00555559434084 5.11111111111111  2.11111111111111 4.72777815338266  C 2.32222253250452 4.21666629106178  2.53333337211862 3.83333309858028  2.84999972850299 3.44999967134572  C 3.16666647274023 2.93888827853095  3.48333302305104 2.68333305162967  3.90555586583785 2.55555555555556  C 4.22222222222222 2.42777782472839  4.75 2.17222259782711  5.69999945700598 2.17222259782711  C 6.65000124112919 2.04444463224689  6.96666604610207 2.04444463224689  9.5 2.04444463224689  Z M 9.5 0  C 6.96666604610207 0  6.54444475472674 0  5.59444413416215 0.127777789515431  C 4.53888935431234 0.127777789515431  3.90555586583785 0.38333333920216  3.27222237736337 0.638888888888889  C 2.63888927674176 0.89444446791975  2.11111111111111 1.27777777777778  1.58333323637011 1.91666654929014  C 1.05555555555556 2.55555555555556  0.738888908281533 3.19444491395055  0.527777777777778 3.96111129891355  C 0.211111130503755 4.72777815338266  0.105555565251877 5.49444500785178  0.105555565251877 6.77222184661734  C 0 7.92222259782711  0 8.43333258212356  0 11.5  C 0 14.5666674178764  0 15.0777774021729  0.105555565251877 16.2277762753582  C 0.105555565251877 17.5055521751116  0.316666671514828 18.2722237246418  0.527777777777778 19.0388858840498  C 0.738888908281533 19.80555743358  1.05555555555556 20.4444444444444  1.58333323637011 21.0833352113578  C 2.11111111111111 21.7222222222222  2.63888927674176 22.1055551799507  3.27222237736337 22.3611092330867  C 3.90555547798498 22.6166670422716  4.53888935431234 22.872222973432  5.59444413416215 22.872222973432  C 6.54444475472674 23  6.96666604610207 23  9.5 23  C 12.0333339538979 23  12.4555552452733 23  13.4055543144264 22.872222973432  C 14.4611083185704 22.872222973432  15.0944456855736 22.6166632862227  15.7277752955194 22.3611092330867  C 16.3611126625226 22.1055551799507  16.8888888888889 21.7222222222222  17.4166682180782 21.0833352113578  C 17.9444444444444 20.4444444444444  18.2611108008288 19.80555743358  18.4722206708107 19.0388858840498  C 18.6833336436156 18.2722199685929  18.894445065009 17.5055521751116  18.894445065009 16.2277762753582  C 18.894445065009 14.9500003756049  19 14.5666674178764  19 11.5  C 19 8.43333258212356  19 7.92222259782711  18.894445065009 6.77222184661734  C 18.894445065009 5.49444500785178  18.6833305407926 4.72777815338266  18.4722206708107 3.96111129891355  C 18.2611108008288 3.19444491395055  17.9444444444444 2.55555555555556  17.4166682180782 1.91666666666667  C 16.8888888888889 1.27777777777778  16.3611126625226 0.894444643984541  15.7277752955194 0.63888906495368  C 15.0944425827507 0.383333456578687  14.4611083185704 0.127777906891958  13.4055543144264 0.127777906891958  C 12.4555552452733 0  12.0333339538979 0  9.5 0  Z M 9.5 5.622222973432  C 6.75555617612015 5.622222973432  4.64444506500904 8.17777852898755  4.64444506500904 11.5  C 4.64444506500904 14.8222224100247  6.86111033540537 17.3777807826169  9.5 17.3777807826169  C 12.2444445995856 17.3777807826169  14.3555580378139 14.6944435054322  14.3555580378139 11.5  C 14.3555580378139 8.30555461654334  12.2444445995856 5.622222973432  9.5 5.622222973432  Z M 9.5 15.3333323943211  C 7.70555524527326 15.3333323943211  6.33333294548046 13.6722225978271  6.33333294548046 11.5  C 6.33333294548046 9.32777740217289  7.70555524527326 7.66666619716056  9.5 7.66666619716056  C 11.2944447547267 7.66666619716056  12.6666658909609 9.32777740217289  12.6666658909609 11.5  C 12.6666658909609 13.6722225978271  11.2944447547267 15.3333323943211  9.5 15.3333323943211  Z M 14.5666679077959 3.96111129891355  C 13.9333320922041 3.96111129891355  13.4055543144264 4.59999971829633  13.4055543144264 5.36666610325934  C 13.4055543144264 6.13333248822234  13.9333320922041 6.77222137711123  14.5666679077959 6.77222137711123  C 15.1999990691531 6.77222137711123  15.7277768469309 6.13333248822234  15.7277768469309 5.36666610325934  C 15.7277752955194 4.59999971829633  15.1999990691531 3.96111129891355  14.5666679077959 3.96111129891355  Z " fill-rule="nonzero" fill="#ffffff" stroke="none" transform="matrix(1 0 0 1 335 23 )" />
  </g>
</svg>